 <svg
              xmlns="http://www.w3.org/2000/svg"
              width="159"
              height="58"
              viewBox="0 0 159 58"
              fill="none"
            >
              <path
                d="M144.434 38.4998V18.2852H159.002V22.7071H149.922V26.1815H158.252V30.6034H149.922V34.0778H158.963V38.4998H144.434Z"
                fill="#1C1D1C"
              />
              <path
                d="M122.742 38.4998V34.2752L123.295 34.1963C123.966 34.091 124.522 33.8015 124.963 33.3277C125.41 32.8473 125.753 32.0873 125.99 31.0476C126.233 30.0013 126.388 28.5767 126.453 26.7737L126.769 18.2852H141.417V38.4998H136.126V22.5492H131.823L131.507 28.9057C131.389 31.2615 131.073 33.1401 130.56 34.5417C130.046 35.9433 129.267 36.9534 128.22 37.572C127.174 38.1905 125.795 38.4998 124.085 38.4998H122.742Z"
                fill="#1C1D1C"
              />
              <path
                d="M106.125 38.4998H100.203L106.876 18.2852H114.377L121.049 38.4998H115.127L110.705 23.8521H110.547L106.125 38.4998ZM105.02 30.5245H116.154V34.6306H105.02V30.5245Z"
                fill="#1C1D1C"
              />
              <path
                d="M70.8555 18.2852H76.1855V34.2752H81.1207V18.2852H86.4113V34.2752H91.228V18.2852H96.5186V38.4998H70.8555V18.2852Z"
                fill="#1C1D1C"
              />
              <path
                d="M10.995 6.25781V25.5911H6.48047V6.25781"
                fill="#1C1D1C"
              />
              <path
                d="M26.5302 31.3672V50.7005H22.0156V31.3672"
                fill="#1C1D1C"
              />
              <path
                d="M50.3661 6.25781V25.5911H45.8516V6.25781"
                fill="#1C1D1C"
              />
              <path
                d="M38.331 6.25781V25.5911H33.8164V6.25781"
                fill="#1C1D1C"
              />
              <path
                d="M14.495 31.3672V50.7005H9.98047V31.3672"
                fill="#1C1D1C"
              />
              <path
                d="M18.7607 6.25781V25.5911H14.2461V6.25781"
                fill="#1C1D1C"
              />
              <path
                d="M26.5302 6.25781V25.5911H22.0156V6.25781"
                fill="#1C1D1C"
              />
              <path
                d="M50.3655 35.4528H33.8164V31.0293H50.3655"
                fill="#1C1D1C"
              />
              <path
                d="M50.3655 43.0504H33.8164V38.627H50.3655"
                fill="#1C1D1C"
              />
              <path
                d="M50.3655 50.6618H33.8164V46.2383H50.3655"
                fill="#1C1D1C"
              />
              <path
                d="M50.3711 11.5582V6.25L33.822 6.25V11.5582L50.3711 11.5582Z"
                fill="#1C1D1C"
              />
              <path
                d="M50.3672 20.3394V15.0312L33.8181 15.0312V20.3394L50.3672 20.3394Z"
                fill="#1C1D1C"
              />
              <path
                d="M26.5234 36.4234V31.1152L9.97437 31.1152V36.4234H26.5234Z"
                fill="#1C1D1C"
              />
              <path
                d="M14.4961 50.7535L14.4961 45.4453H6.48177L6.48177 50.7535H14.4961Z"
                fill="#1C1D1C"
              />
              <path
                d="M55.8401 1.30103V55.8271H1.30103V1.30103H55.8401ZM57.1411 0H0V57.1281H57.1411V0Z"
                fill="#1C1D1C"
              />
            </svg>