<svg xmlns="http://www.w3.org/2000/svg" width="34" height="34" viewBox="0 0 34 34" fill="none">
  <g clip-path="url(#clip0_32_3187)">
    <rect x="0.339844" width="33.3175" height="33.3175" rx="16.6588" fill="white"/>
    <path d="M16.9986 0C26.1988 0 33.6574 7.45859 33.6574 16.6588C33.6574 25.859 26.1988 33.3175 16.9986 33.3175C7.79843 33.3175 0.339844 25.859 0.339844 16.6588C0.339844 7.45859 7.79843 0 16.9986 0ZM22.7451 23.4495C23.051 22.5098 24.4875 13.14 24.6639 11.2931C24.7177 10.7343 24.5405 10.3625 24.1952 10.1959C23.7765 9.99526 23.1571 10.0952 22.4369 10.3549C21.4503 10.7108 8.83885 16.0651 8.1104 16.3756C7.41982 16.6694 6.76634 16.9889 6.76634 17.4531C6.76634 17.7795 6.96019 17.9627 7.49327 18.1528C8.04755 18.3504 9.44462 18.7737 10.2707 19.0016C11.0658 19.2212 11.9692 19.0304 12.4765 18.7154C13.0134 18.3814 19.2165 14.2319 19.661 13.8677C20.1055 13.5042 20.4606 13.9699 20.0971 14.3341C19.7337 14.6976 15.4766 18.8297 14.9148 19.4022C14.2325 20.0965 14.7164 20.8167 15.1745 21.1051C15.6962 21.4345 19.452 23.953 20.0176 24.3574C20.5833 24.7617 21.1565 24.945 21.682 24.945C22.2075 24.9442 22.4839 24.2521 22.7451 23.4495Z" fill="#25ACE8"/>
  </g>
  <defs>
    <clipPath id="clip0_32_3187">
      <rect x="0.339844" width="33.3175" height="33.3175" rx="16.6588" fill="white"/>
    </clipPath>
  </defs>
</svg>