<svg xmlns="http://www.w3.org/2000/svg" width="34" height="34" viewBox="0 0 34 34" fill="none">
<rect x="0.683594" width="33.3175" height="33.3175" rx="16.6588" fill="#4AC959"/>
<g clip-path="url(#clip0_32_3189)">
<path d="M24.3287 9.41207C22.5589 7.64102 20.2056 6.66514 17.6982 6.66406C12.5315 6.66406 8.32686 10.8674 8.32479 16.0339C8.32419 17.6854 8.7557 19.2975 9.57589 20.7185L8.24609 25.574L13.2151 24.2711C14.5841 25.0177 16.1256 25.4111 17.6942 25.4118H17.6982H17.6982C22.8641 25.4118 27.0694 21.2077 27.0716 16.0415C27.0725 13.5375 26.0983 11.1832 24.3287 9.41207ZM17.6982 23.8292H17.6952C16.297 23.8284 14.9259 23.4531 13.7299 22.7434L13.4453 22.5747L10.4966 23.3478L11.2839 20.4739L11.0984 20.1792C10.3185 18.9391 9.90675 17.506 9.90734 16.0345C9.90905 11.7403 13.4038 8.24672 17.7012 8.24672C19.7822 8.24758 21.7381 9.05874 23.2092 10.5308C24.6801 12.0028 25.4896 13.9597 25.4889 16.0408C25.4871 20.3352 21.9922 23.8292 17.6982 23.8292Z" fill="#E0E0E0"/>
<path d="M8.67578 25.036L9.94483 20.4023C9.16191 19.0461 8.75019 17.5076 8.75068 15.9318C8.75273 11.0014 12.7654 6.99023 17.6957 6.99023C20.0886 6.99131 22.3344 7.92257 24.023 9.61276C25.712 11.3029 26.6416 13.5495 26.6406 15.9388C26.6386 20.8693 22.6257 24.8809 17.696 24.8809C17.6963 24.8809 17.6957 24.8809 17.696 24.8809H17.692C16.195 24.8804 14.7241 24.5046 13.4177 23.7926L8.67578 25.036Z" fill="url(#paint0_linear_32_3189)"/>
<path fill-rule="evenodd" clip-rule="evenodd" d="M15.3807 12.0558C15.2073 11.6703 15.0247 11.6626 14.8597 11.6558C14.7248 11.65 14.5703 11.6504 14.416 11.6504C14.2617 11.6504 14.0108 11.7084 13.7987 11.9401C13.5864 12.1717 12.9883 12.7318 12.9883 13.8708C12.9883 15.01 13.818 16.1107 13.9336 16.2653C14.0494 16.4197 15.5353 18.8319 17.8885 19.7599C19.8442 20.5311 20.2422 20.3777 20.6667 20.3391C21.0912 20.3005 22.0365 19.7792 22.2294 19.2385C22.4224 18.698 22.4224 18.2347 22.3645 18.1378C22.3066 18.0413 22.1523 17.9834 21.9207 17.8677C21.6892 17.7519 20.551 17.1917 20.3387 17.1145C20.1265 17.0374 19.9721 16.9988 19.8177 17.2306C19.6634 17.4621 19.2199 17.9834 19.0848 18.1378C18.9498 18.2925 18.8147 18.3118 18.5832 18.1961C18.3516 18.0799 17.606 17.8357 16.7214 17.047C16.0331 16.4334 15.5685 15.6756 15.4334 15.4438C15.2983 15.2122 15.4189 15.0868 15.5351 14.9714C15.639 14.8677 15.7666 14.7011 15.8824 14.5659C15.9979 14.4307 16.0365 14.3343 16.1137 14.1799C16.1909 14.0253 16.1523 13.8901 16.0944 13.7743C16.0365 13.6586 15.5866 12.5136 15.3807 12.0558Z" fill="white"/>
<path d="M24.2535 9.38248C22.504 7.63177 20.1776 6.66711 17.6991 6.66602C12.5917 6.66602 8.43531 10.8211 8.43325 15.9283C8.43265 17.5608 8.85921 19.1544 9.66998 20.5591L8.35547 25.3589L13.2674 24.0709C14.6208 24.8089 16.1445 25.1979 17.6952 25.1985H17.6991H17.6991C22.8057 25.1985 26.9627 21.0427 26.9649 15.9357C26.9657 13.4606 26.0028 11.1333 24.2535 9.38248ZM17.6991 23.6341H17.6961C16.314 23.6334 14.9586 23.2623 13.7763 22.5608L13.495 22.394L10.5801 23.1582L11.3583 20.3173L11.175 20.0261C10.4041 18.8002 9.99705 17.3835 9.99765 15.9289C9.99933 11.684 13.454 8.23054 17.702 8.23054C19.7592 8.23138 21.6926 9.03323 23.1468 10.4884C24.6008 11.9435 25.401 13.8779 25.4004 15.9352C25.3986 20.1802 21.9438 23.6341 17.6991 23.6341Z" fill="white"/>
</g>
<defs>
<linearGradient id="paint0_linear_32_3189" x1="17.6582" y1="25.036" x2="17.6582" y2="6.99026" gradientUnits="userSpaceOnUse">
<stop stop-color="#20B038"/>
<stop offset="1" stop-color="#60D66A"/>
</linearGradient>
<clipPath id="clip0_32_3189">
<rect width="18.8268" height="18.91" fill="white" transform="translate(8.24609 6.66406)"/>
</clipPath>
</defs>
</svg>